<!-- Optimized the inkscape-1.3.2_2023-11-25_091e20ef0f/share/icons/multicolor/symbolic/actions/tool-pages-symbolic.svg using svgviewer.dev, removed unused styles, elements and attributes, made this icon white, added white W letter on Jan 8, 2024 -->
<!-- Beautified, removed unused attributes, styles and path points, converted stroke of the W to path on Jan 20, 2024 -->
<!-- Added class="copy_eq_btn" on May 17, 2024 -->
<!-- This resource is licensed under GPL-2.0-or-later, the license text can be found in LICENSES/GPL-2.0-or-later.txt. More info in COPYING. -->
<svg class="copy_eq_btn" viewBox="0 0 16 16" height="16" width="16" xmlns="http://www.w3.org/2000/svg">
    <path d="M11 6a1 1 0 00-.293-.707l-2-2A1 1 0 008 3H1a1 1 0 00-1 1v11a1 1 0 001 1h9a1 1 0 001-1zM2 14 2 5h5.586L9 6.414v7.586z"/>
    <path d="M7 3.525V6.5a.5.5 0 00.5.5H11V6L8 6V3.525Z"/>
    <path d="M13 13h2a1 1 0 001-1V3a1 1 0 00-.293-.707l-2-2A1 1 0 0013 0H6a1 1 0 100 2h6.586L14 3.414v7.586h-1a1 1 0 100 2z"/>
    <path d="M7.5 3.525V6.5H11"/>
    <path d="M12 1v2.5a.5.5 0 00.5.5H15V3L13 3V1Z"/>
    <path d="m12.5 1.5 2 2h-2z"/>
    <path d="m 3.1618 7.9186 c -0.1625 0 -0.3265 0.0556 -0.4427 0.1553 c -0.1172 0.0986 -0.1859 0.2434 -0.1859 0.3854 c 0 0.1078 0.0271 0.2238 0.071 0.3726 l -0.0021 -0.0018 l 0.6829 2.4148 c -0 0.0006 -0 0.0012 0 0.0019 l 0.0689 0.2356 c 0.0007 0.0012 0.0014 0.0024 0.0021 0.0036 c 0.0307 0.0966 0.071 0.1848 0.1232 0.2649 c 0.0007 0.0012 0.0014 0.0024 0.0021 0.0036 c 0.0595 0.087 0.1438 0.1614 0.2443 0.2119 c 0.0006 0.0003 0.0015 -0.0003 0.0021 0 c 0.0009 0.0004 0.0012 0.0014 0.0021 0.0019 c 0.1122 0.0574 0.2397 0.0804 0.3717 0.0804 c 0.1672 0 0.3332 -0.0405 0.4594 -0.1333 c 0 -0.0006 0 -0.0012 0 -0.0019 c 0.1005 -0.0748 0.1816 -0.1661 0.2276 -0.2722 v -0.0019 c 0.0384 -0.0861 0.0809 -0.2051 0.1337 -0.3708 c 0 -0.0006 0 -0.0012 0 -0.0019 l 0.4406 -1.4084 l 0.4323 1.4084 c -0 0.0006 -0 0.0012 0 0.0019 c 0.055 0.1708 0.0982 0.2917 0.1337 0.3745 c 0.0464 0.1063 0.1281 0.1982 0.2297 0.2722 c 0.1266 0.0921 0.2922 0.1315 0.4594 0.1315 c 0.1726 0 0.3407 -0.0378 0.4678 -0.137 c 0.1008 -0.0773 0.1777 -0.1737 0.2214 -0.2831 v -0.0019 c 0.038 -0.091 0.0782 -0.2138 0.1253 -0.3799 L 8.1174 8.83 c 0 -0.0006 0 -0.0012 0 -0.0018 c 0.0426 -0.1537 0.0668 -0.2649 0.0668 -0.369 c 0 -0.1427 -0.0691 -0.2891 -0.188 -0.3873 c -0.1158 -0.0974 -0.278 -0.1534 -0.4385 -0.1534 c -0.1502 0 -0.3064 0.0391 -0.4177 0.1352 c -0.0804 0.0695 -0.1433 0.155 -0.1796 0.2484 c -0.0007 0.0012 -0.0014 0.0024 -0.0021 0.0037 c -0.026 0.0726 -0.05 0.163 -0.0773 0.2758 L 6.5554 9.8512 L 6.2003 8.704 C 6.1489 8.5398 6.1086 8.4219 6.0729 8.3387 C 6.0281 8.232 5.9477 8.1388 5.8474 8.0629 c -0.0005 -0.0004 -0.0016 0.0004 -0.0021 0 C 5.715 7.9613 5.5414 7.9186 5.3629 7.9186 c -0.1761 0 -0.3461 0.0384 -0.4782 0.1333 C 4.7764 8.1288 4.6913 8.2283 4.6403 8.3405 C 4.5982 8.4334 4.5571 8.5518 4.5109 8.7059 L 4.1621 9.8439 L 3.8363 8.5816 v -0.0018 C 3.7945 8.4082 3.7474 8.2698 3.6776 8.156 C 3.58 7.9969 3.364 7.9186 3.1618 7.9186 Z"/>
</svg>